HIERARCHY
ROOT Hips
{
	OFFSET 0.000000 0.000000 0.000000
	CHANNELS 6 Xposition Yposition Zposition Xrotation Yrotation Zrotation
	JOINT LeftUpLeg_virtual
	{
		OFFSET 0.000000 0.000000 0.000000
		CHANNELS 3 Xrotation Yrotation Zrotation
		JOINT LeftUpLeg
		{
			OFFSET 15.427100 -6.655098 0.678600
			CHANNELS 3 Xrotation Yrotation Zrotation
			JOINT LeftLeg
			{
				OFFSET 4.081073 -39.591068 13.024000
				CHANNELS 3 Xrotation Yrotation Zrotation
				JOINT LeftFoot
				{
					OFFSET -4.081074 -37.707932 -15.979700
					CHANNELS 3 Xrotation Yrotation Zrotation
					JOINT LeftToeBase
					{
						OFFSET 5.346399 -15.068900 20.645000
						CHANNELS 3 Xrotation Yrotation Zrotation
						JOINT LeftToe_End
						{
							OFFSET 2.754700 0.931300 11.300900
							CHANNELS 3 Xrotation Yrotation Zrotation
							End Site
							{
								OFFSET 0 0 0
							}
						}
					}
				}
			}
		}
	}
	JOINT RightUpLeg_virtual
	{
		OFFSET 0.000000 0.000000 0.000000
		CHANNELS 3 Xrotation Yrotation Zrotation
		JOINT RightUpLeg
		{
			OFFSET -15.569500 -6.655098 0.678600
			CHANNELS 3 Xrotation Yrotation Zrotation
			JOINT RightLeg
			{
				OFFSET -4.081825 -39.591045 13.023800
				CHANNELS 3 Xrotation Yrotation Zrotation
				JOINT RightFoot
				{
					OFFSET 4.081824 -37.707954 -15.979600
					CHANNELS 3 Xrotation Yrotation Zrotation
					JOINT RightToeBase
					{
						OFFSET -5.346400 -15.068900 20.645000
						CHANNELS 3 Xrotation Yrotation Zrotation
						JOINT RightToe_End
						{
							OFFSET -2.754700 0.931300 11.300900
							CHANNELS 3 Xrotation Yrotation Zrotation
							End Site
							{
								OFFSET 0 0 0
							}
						}
					}
				}
			}
		}
	}
	JOINT Spine_virtual
	{
		OFFSET 0.000000 0.000000 0.000000
		CHANNELS 3 Xrotation Yrotation Zrotation
		JOINT Spine
		{
			OFFSET -0.279200 12.230698 -2.892100
			CHANNELS 3 Xrotation Yrotation Zrotation
			JOINT Spine1
			{
				OFFSET -0.232667 10.192268 -1.242267
				CHANNELS 3 Xrotation Yrotation Zrotation
				JOINT Spine1_split
				{
					OFFSET -0.232667 10.192268 -1.242267
					CHANNELS 3 Xrotation Yrotation Zrotation
					JOINT Spine2
					{
						OFFSET -0.232667 10.192268 -1.242267
						CHANNELS 3 Xrotation Yrotation Zrotation
						JOINT Neck_virtual
						{
							OFFSET 0.000000 0.000000 0.000000
							CHANNELS 3 Xrotation Yrotation Zrotation
							JOINT Neck
							{
								OFFSET -0.418800 17.814194 8.416900
								CHANNELS 3 Xrotation Yrotation Zrotation
								JOINT Head
								{
									OFFSET 0.000000 7.031097 3.806800
									CHANNELS 3 Xrotation Yrotation Zrotation
									JOINT HeadTop_End
									{
										OFFSET 0.000000 24.646606 12.978600
										CHANNELS 3 Xrotation Yrotation Zrotation
										End Site
										{
											OFFSET 0 0 0
										}
									}
								}
							}
						}
						JOINT LeftShoulder_virtual
						{
							OFFSET 0.000000 0.000000 0.000000
							CHANNELS 3 Xrotation Yrotation Zrotation
							JOINT LeftShoulder
							{
								OFFSET 8.476499 7.247704 -3.868750
								CHANNELS 3 Xrotation Yrotation Zrotation
								JOINT LeftShoulder_split
								{
									OFFSET 8.476499 7.247704 -3.868750
									CHANNELS 3 Xrotation Yrotation Zrotation
									JOINT LeftArm
									{
										OFFSET 9.308998 -2.777710 0.208600
										CHANNELS 3 Xrotation Yrotation Zrotation
										JOINT LeftForeArm
										{
											OFFSET 29.972298 0.000000 0.000000
											CHANNELS 3 Xrotation Yrotation Zrotation
											JOINT LeftHand
											{
												OFFSET 26.026505 0.000000 0.000000
												CHANNELS 3 Xrotation Yrotation Zrotation
												End Site
												{
													OFFSET 0 0 0
												}
											}
										}
									}
								}
							}
						}
						JOINT RightShoulder_virtual
						{
							OFFSET 0.000000 0.000000 0.000000
							CHANNELS 3 Xrotation Yrotation Zrotation
							JOINT RightShoulder
							{
								OFFSET -7.570500 7.247704 -3.868750
								CHANNELS 3 Xrotation Yrotation Zrotation
								JOINT RightShoulder_split
								{
									OFFSET -7.570500 7.247704 -3.868750
									CHANNELS 3 Xrotation Yrotation Zrotation
									JOINT RightArm
									{
										OFFSET -9.308998 -2.777710 0.208500
										CHANNELS 3 Xrotation Yrotation Zrotation
										JOINT RightForeArm
										{
											OFFSET -29.972300 0.000000 0.000000
											CHANNELS 3 Xrotation Yrotation Zrotation
											JOINT RightHand
											{
												OFFSET -26.026505 0.000000 0.000000
												CHANNELS 3 Xrotation Yrotation Zrotation
												End Site
												{
													OFFSET 0 0 0
												}
											}
										}
									}
								}
							}
						}
					}
				}
			}
		}
	}
}
MOTION
Frames: 4
Frame Time: 0.03333333
-1.067355 87.365204 -2.321281 0.000000 0.000000 0.000000 -6.526613 -24.838814 2.373793 -13.760324 11.871540 11.329758 27.783401 9.568744 2.445316 -1.672347 19.631943 -13.603752 -1.022573 0.246846 -1.000950 0.000000 0.000000 0.000000 -5.935264 -23.622390 2.718169 -11.178479 -34.320270 -17.299541 32.368864 6.791047 -8.233221 -20.805769 -20.805181 5.412302 -4.044909 0.578646 -0.073761 0.000000 0.000000 0.000000 -6.910490 -26.464920 1.522165 5.459216 -2.582080 -1.723524 1.387679 -2.780820 0.398390 0.793226 0.600475 0.068112 0.000000 0.000000 0.000000 1.013056 -2.451988 0.320043 2.045979 5.335135 -0.375840 0.031579 -18.892884 -3.754933 0.000000 0.000000 0.000000 1.438033 -2.595443 0.065546 -0.079584 -16.032766 -18.674021 -2.133095 -1.514103 -1.805838 16.258569 7.370887 -35.487105 171.259426 -82.359719 170.334645 0.000000 0.000000 0.000000 1.006568 -2.470726 0.344152 0.873998 15.152380 11.419886 3.008864 2.483355 -0.020862 3.372368 28.044497 43.184305 -172.059309 83.833626 171.626849 0.000000 0.000000 0.000000 
-1.912583 87.472885 -2.052597 0.000000 0.000000 0.000000 -6.548181 -26.492427 2.001038 -13.233391 11.574046 12.077752 28.058310 9.986916 2.581109 -1.302450 20.362230 -12.976503 -1.126994 0.366317 -1.867247 0.000000 0.000000 0.000000 -6.016010 -25.157137 2.326961 -9.798020 -34.236839 -16.012306 31.184192 7.179651 -8.026476 -21.283254 -20.260610 5.154445 -3.964957 0.552740 -0.066010 0.000000 0.000000 0.000000 -6.984561 -27.888185 1.196621 5.453947 -2.504107 -1.508302 1.370270 -2.660828 0.378407 0.751782 0.630497 0.071203 0.000000 0.000000 0.000000 0.989919 -2.342647 0.288499 2.005171 5.367013 -0.356907 0.065168 -18.937927 -3.460527 0.000000 0.000000 0.000000 1.403166 -2.482767 0.051903 -0.086869 -16.047780 -18.580691 -2.107047 -1.490204 -1.930420 15.489897 7.049591 -35.650449 171.180701 -82.765541 170.246181 0.000000 0.000000 0.000000 0.981270 -2.363959 0.299836 0.849894 15.192485 11.332983 3.086535 2.493819 0.029609 3.887408 27.366119 42.412609 -173.023226 83.038237 172.584837 0.000000 0.000000 0.000000 
-2.658756 87.589249 -1.799255 0.000000 0.000000 0.000000 -6.640160 -28.211494 1.607492 -12.994138 11.319520 12.721489 28.449722 10.156057 2.594531 -0.954727 20.610135 -12.342247 -1.386466 0.498850 -2.615490 0.000000 0.000000 0.000000 -6.172681 -26.729187 1.920839 -8.343767 -33.996823 -14.834213 30.086966 7.298899 -7.797536 -21.764628 -19.614696 4.877035 -3.735190 0.519241 -0.077142 0.000000 0.000000 0.000000 -7.048095 -29.292735 0.881511 5.438942 -2.351444 -1.308224 1.339437 -2.521822 0.349567 0.708347 0.607083 0.060616 0.000000 0.000000 0.000000 0.981015 -2.209326 0.248072 1.960933 5.401239 -0.366969 0.061956 -18.829204 -3.205418 0.000000 0.000000 0.000000 1.362671 -2.346891 0.027824 -0.097638 -16.079017 -18.481556 -2.070270 -1.464653 -2.054211 14.754844 6.700120 -35.800293 171.286500 -83.155962 170.344057 0.000000 0.000000 0.000000 0.949343 -2.235919 0.252146 0.832344 15.263620 11.281619 3.095302 2.499424 0.057448 4.453995 26.530803 41.714752 -173.839475 82.195460 173.406919 0.000000 0.000000 0.000000 
-3.298550 87.727737 -1.559948 0.000000 0.000000 0.000000 -6.788909 -29.952029 1.210881 -13.093740 11.165175 13.136755 28.810920 10.063981 2.478252 -0.628876 20.225862 -11.708846 -1.876226 0.607077 -3.073055 0.000000 0.000000 0.000000 -6.367516 -28.324250 1.522100 -6.974427 -33.628703 -13.844386 29.110492 7.174201 -7.580345 -22.067593 -18.880624 4.722066 -3.560483 0.488368 -0.112086 0.000000 0.000000 0.000000 -7.115300 -30.693449 0.595249 5.430621 -2.127133 -1.132651 1.304055 -2.373561 0.314668 0.676843 0.537782 0.029466 0.000000 0.000000 0.000000 0.989657 -2.060274 0.201726 1.908459 5.433637 -0.396274 0.024023 -18.567424 -2.993459 0.000000 0.000000 0.000000 1.321079 -2.197713 -0.004593 -0.109544 -16.116530 -18.389953 -2.017605 -1.426152 -2.160128 14.084955 6.336427 -35.930753 171.563615 -83.501125 170.616718 0.000000 0.000000 0.000000 0.917686 -2.095538 0.205531 0.821275 15.344327 11.261032 3.051634 2.488004 0.065041 5.037316 25.644567 41.100090 -174.540321 81.317323 174.125428 0.000000 0.000000 0.000000 
